<svg id="Layer_1" data-name="Layer 1" xmlns="http://www.w3.org/2000/svg" xmlns:xlink="http://www.w3.org/1999/xlink" viewBox="0 0 47 47"><defs><linearGradient id="linear-gradient" x1="35.25" y1="43.85" x2="11.75" y2="3.15" gradientUnits="userSpaceOnUse"><stop offset="0" stop-color="#d4145a"/><stop offset="1" stop-color="#9e005d"/></linearGradient><linearGradient id="linear-gradient-2" x1="23.5" y1="12.5" x2="23.5" y2="36.5" gradientUnits="userSpaceOnUse"><stop offset="0" stop-color="#fff"/><stop offset="1" stop-color="#e6e6e6"/></linearGradient><linearGradient id="linear-gradient-3" x1="12.87" y1="34.56" x2="12.87" y2="28.9" gradientUnits="userSpaceOnUse"><stop offset="0" stop-color="red"/><stop offset="0" stop-color="#fd0103"/><stop offset="0" stop-color="#ee0823"/><stop offset="0" stop-color="#e30d3b"/><stop offset="0" stop-color="#db114c"/><stop offset="0" stop-color="#d61357"/><stop offset="0" stop-color="#d4145a"/></linearGradient><linearGradient id="linear-gradient-4" x1="23.87" y1="26.56" x2="23.87" y2="24.5" xlink:href="#linear-gradient-3"/><linearGradient id="linear-gradient-5" x1="12.87" y1="26.56" x2="12.87" y2="24.5" xlink:href="#linear-gradient-3"/><linearGradient id="linear-gradient-6" x1="34.87" y1="26.56" x2="34.87" y2="24.5" xlink:href="#linear-gradient-3"/><linearGradient id="linear-gradient-7" x1="23.68" y1="34.56" x2="23.68" y2="28.9" xlink:href="#linear-gradient-3"/><linearGradient id="linear-gradient-8" x1="34.49" y1="34.56" x2="34.49" y2="28.9" xlink:href="#linear-gradient-3"/></defs><title>icon-drum-machine</title><circle cx="23.5" cy="23.5" r="23.5" fill="url(#linear-gradient)"/><rect x="6.5" y="12.5" width="34" height="24" fill="url(#linear-gradient-2)"/><rect x="8.86" y="28.9" width="8.01" height="5.66" fill="url(#linear-gradient-3)"/><rect x="19.86" y="24.5" width="8.01" height="2.06" fill="url(#linear-gradient-4)"/><rect x="8.86" y="24.5" width="8.01" height="2.06" fill="url(#linear-gradient-5)"/><rect x="30.86" y="24.5" width="8.01" height="2.06" fill="url(#linear-gradient-6)"/><rect x="19.68" y="28.9" width="8.01" height="5.66" fill="url(#linear-gradient-7)"/><rect x="30.49" y="28.9" width="8.01" height="5.66" fill="url(#linear-gradient-8)"/></svg>