<svg id="Layer_1" data-name="Layer 1" xmlns="http://www.w3.org/2000/svg" xmlns:xlink="http://www.w3.org/1999/xlink" viewBox="0 0 48 48"><defs><linearGradient id="linear-gradient" x1="35.75" y1="44.35" x2="12.25" y2="3.65" gradientUnits="userSpaceOnUse"><stop offset="0" stop-color="#39b54a"/><stop offset="1" stop-color="#006837"/></linearGradient><linearGradient id="linear-gradient-2" x1="24" y1="13" x2="24" y2="37" gradientUnits="userSpaceOnUse"><stop offset="0" stop-color="#fff"/><stop offset="1" stop-color="#e6e6e6"/></linearGradient><linearGradient id="linear-gradient-3" x1="14.37" y1="35.06" x2="14.37" y2="29.4" gradientUnits="userSpaceOnUse"><stop offset="0" stop-color="#39b54a"/><stop offset="0" stop-color="#37b44a"/><stop offset="0" stop-color="#1fa548"/><stop offset="0.01" stop-color="#0e9a46"/><stop offset="0.01" stop-color="#039445"/><stop offset="0.02" stop-color="#009245"/></linearGradient><linearGradient id="linear-gradient-4" x1="24.18" y1="35.06" x2="24.18" y2="29.4" xlink:href="#linear-gradient-3"/><linearGradient id="linear-gradient-5" x1="33.99" y1="35.06" x2="33.99" y2="29.4" xlink:href="#linear-gradient-3"/><linearGradient id="linear-gradient-6" x1="14.37" y1="28.06" x2="14.37" y2="22.4" xlink:href="#linear-gradient-3"/><linearGradient id="linear-gradient-7" x1="24.18" y1="28.06" x2="24.18" y2="22.4" xlink:href="#linear-gradient-3"/><linearGradient id="linear-gradient-8" x1="33.99" y1="28.06" x2="33.99" y2="22.4" xlink:href="#linear-gradient-3"/><linearGradient id="linear-gradient-9" x1="14.37" y1="21.06" x2="14.37" y2="15.4" xlink:href="#linear-gradient-3"/><linearGradient id="linear-gradient-10" x1="24.18" y1="21.06" x2="24.18" y2="15.4" xlink:href="#linear-gradient-3"/><linearGradient id="linear-gradient-11" x1="33.99" y1="21.06" x2="33.99" y2="15.4" xlink:href="#linear-gradient-3"/></defs><title>icon-synth</title><circle cx="24" cy="24" r="23.5" fill="url(#linear-gradient)"/><rect x="8" y="13" width="32" height="24" fill="url(#linear-gradient-2)"/><rect x="10.36" y="29.4" width="8.01" height="5.66" fill="url(#linear-gradient-3)"/><rect x="20.18" y="29.4" width="8.01" height="5.66" fill="url(#linear-gradient-4)"/><rect x="29.99" y="29.4" width="8.01" height="5.66" fill="url(#linear-gradient-5)"/><rect x="10.36" y="22.4" width="8.01" height="5.66" fill="url(#linear-gradient-6)"/><rect x="20.18" y="22.4" width="8.01" height="5.66" fill="url(#linear-gradient-7)"/><rect x="29.99" y="22.4" width="8.01" height="5.66" fill="url(#linear-gradient-8)"/><rect x="10.36" y="15.4" width="8.01" height="5.66" fill="url(#linear-gradient-9)"/><rect x="20.18" y="15.4" width="8.01" height="5.66" fill="url(#linear-gradient-10)"/><rect x="29.99" y="15.4" width="8.01" height="5.66" fill="url(#linear-gradient-11)"/></svg>