<svg xmlns="http://www.w3.org/2000/svg" xmlns:xlink="http://www.w3.org/1999/xlink" version="1.1" x="0px" y="0px" viewBox="0 0 100 100" enable-background="new 0 0 100 100" xml:space="preserve"><g><path d="M33.805,27.681c0.529,0.917,1.491,1.436,2.485,1.436c0.48,0,0.977-0.139,1.43-0.398c1.369-0.796,1.836-2.527,1.05-3.911   l-6.182-10.692c-0.796-1.385-2.544-1.852-3.914-1.056c-1.37,0.779-1.839,2.544-1.05,3.911L33.805,27.681z"/><path d="M14.107,32.594l10.706,6.177c0.453,0.259,0.941,0.38,1.428,0.38c0.988,0,1.951-0.502,2.485-1.436   c0.789-1.367,0.321-3.114-1.049-3.91l-10.702-6.194c-1.377-0.779-3.126-0.311-3.915,1.056   C12.264,30.034,12.738,31.798,14.107,32.594z"/><path d="M49.999,25.449c1.583,0,2.867-1.298,2.867-2.889V10.207c0-1.575-1.283-2.856-2.867-2.856c-1.585,0-2.867,1.281-2.867,2.856   v12.353C47.132,24.151,48.415,25.449,49.999,25.449z"/><path d="M62.288,28.719c0.453,0.259,0.939,0.398,1.429,0.398c0.988,0,1.95-0.519,2.485-1.436l6.182-10.71   c0.786-1.367,0.319-3.132-1.051-3.911c-1.369-0.796-3.119-0.329-3.913,1.056l-6.182,10.692   C60.447,26.192,60.917,27.923,62.288,28.719z"/><path d="M71.279,37.716c0.526,0.934,1.495,1.436,2.487,1.436c0.48,0,0.976-0.121,1.429-0.38l10.701-6.177   c1.371-0.796,1.842-2.561,1.051-3.927c-0.796-1.367-2.547-1.835-3.914-1.056l-10.705,6.194   C70.957,34.602,70.49,36.349,71.279,37.716z"/><path d="M25.433,50c0-1.574-1.282-2.855-2.864-2.855H10.207c-1.583,0-2.864,1.281-2.864,2.855c0,1.575,1.281,2.872,2.864,2.872   h12.362C24.151,52.872,25.433,51.575,25.433,50z"/><path d="M85.895,67.406l-10.701-6.16c-1.37-0.796-3.128-0.329-3.916,1.038c-0.789,1.367-0.322,3.132,1.049,3.91l10.705,6.194   c0.454,0.242,0.94,0.381,1.428,0.381c0.989,0,1.952-0.52,2.486-1.436C87.737,69.966,87.266,68.219,85.895,67.406z"/><path d="M89.791,47.145H77.439c-1.583,0-2.867,1.281-2.867,2.855c0,1.575,1.284,2.872,2.867,2.872l12.352-0.018   c1.584,0,2.867-1.28,2.867-2.855C92.657,48.426,91.375,47.145,89.791,47.145z"/><path d="M66.201,72.337c-0.796-1.385-2.543-1.851-3.913-1.055c-1.37,0.778-1.84,2.543-1.051,3.91l6.182,10.692   c0.527,0.935,1.496,1.454,2.485,1.454c0.479,0,0.976-0.139,1.428-0.381c1.37-0.796,1.837-2.56,1.051-3.927L66.201,72.337z"/><path d="M49.999,74.569c-1.585,0-2.867,1.298-2.867,2.855v12.371c0,1.592,1.282,2.855,2.867,2.855c1.583,0,2.867-1.263,2.867-2.855   V77.424C52.866,75.867,51.583,74.569,49.999,74.569z"/><path d="M28.726,62.285c-0.796-1.367-2.544-1.834-3.913-1.038l-10.706,6.176c-1.369,0.796-1.843,2.544-1.047,3.911   c0.529,0.917,1.491,1.436,2.486,1.436c0.479,0,0.974-0.139,1.429-0.381l10.702-6.194C29.047,65.416,29.515,63.651,28.726,62.285z"/><path d="M37.72,71.282c-1.37-0.796-3.129-0.329-3.915,1.055L27.625,83.03c-0.789,1.367-0.32,3.131,1.05,3.927   c0.447,0.242,0.94,0.381,1.427,0.381c0.99,0,1.953-0.519,2.487-1.454l6.182-10.692C39.556,73.825,39.089,72.06,37.72,71.282z"/></g></svg>