<svg id="Layer_1" data-name="Layer 1" xmlns="http://www.w3.org/2000/svg" viewBox="0 0 46 46"><defs><style>.cls-1{fill:none;stroke:#2e2e2e;stroke-miterlimit:10;}.cls-2{fill:#2e2e2e;}</style></defs><title>logo</title><circle class="cls-1" cx="23" cy="23" r="22.5"/><path class="cls-2" d="M14.4,15.37a6.67,6.67,0,0,1,4.91,1.83A7.5,7.5,0,0,1,21,22.51a7.5,7.5,0,0,1-1.65,5.31,6.67,6.67,0,0,1-4.91,1.83H9.46V15.37Zm-.68,13.12a9.38,9.38,0,0,0,2.65-.33,4.24,4.24,0,0,0,1.83-1,4.34,4.34,0,0,0,1.06-1.86,9.68,9.68,0,0,0,.34-2.74,9.67,9.67,0,0,0-.34-2.74,4.34,4.34,0,0,0-1.06-1.86,4.25,4.25,0,0,0-1.83-1,9.38,9.38,0,0,0-2.65-.33h-2.9v12Z"/><path class="cls-2" d="M25.12,15.37l4.74,12.52,4.92-12.52h2V29.65H35.42V17.31h0L30.5,29.65H29.22l-4.7-12.34h0V29.65H23.12V15.37Z"/></svg>